<svg xmlns="http://www.w3.org/2000/svg" xmlns:xlink="http://www.w3.org/1999/xlink" width="1640" zoomAndPan="magnify" viewBox="0 0 1230 693.000001" height="924" preserveAspectRatio="xMidYMid meet" version="1.0"><defs><clipPath id="id1"><path d="M 0.886719 0 L 1229.113281 0 L 1229.113281 692 L 0.886719 692 Z M 0.886719 0 " clip-rule="nonzero"/></clipPath><clipPath id="id2"><path d="M 669 495 L 1229.113281 495 L 1229.113281 692 L 669 692 Z M 669 495 " clip-rule="nonzero"/></clipPath><clipPath id="id3"><path d="M 1152.195312 1079.808594 L 626.875 743.316406 L 901.160156 315.117188 L 1426.480469 651.609375 Z M 1152.195312 1079.808594 " clip-rule="nonzero"/></clipPath><clipPath id="id4"><path d="M 1152.195312 1079.808594 L 626.875 743.316406 L 901.160156 315.117188 L 1426.480469 651.609375 Z M 1152.195312 1079.808594 " clip-rule="nonzero"/></clipPath><clipPath id="id5"><path d="M 0.886719 520 L 277 520 L 277 692 L 0.886719 692 Z M 0.886719 520 " clip-rule="nonzero"/></clipPath><clipPath id="id6"><path d="M -101.507812 482.074219 L 326.007812 643.117188 L 190.839844 1001.949219 L -236.675781 840.90625 Z M -101.507812 482.074219 " clip-rule="nonzero"/></clipPath><clipPath id="id7"><path d="M -101.507812 482.074219 L 326.007812 643.117188 L 190.839844 1001.949219 L -236.675781 840.90625 Z M -101.507812 482.074219 " clip-rule="nonzero"/></clipPath></defs><g clip-path="url(#id1)"><path fill="#ffffff" d="M 0.886719 0 L 1229.113281 0 L 1229.113281 699.492188 L 0.886719 699.492188 Z M 0.886719 0 " fill-opacity="1" fill-rule="nonzero"/><path fill="#e5f6f1" d="M 0.886719 0 L 1229.113281 0 L 1229.113281 692 L 0.886719 692 Z M 0.886719 0 " fill-opacity="1" fill-rule="nonzero"/><path fill="#ffffff" d="M 0.886719 0 L 1229.113281 0 L 1229.113281 692 L 0.886719 692 Z M 0.886719 0 " fill-opacity="1" fill-rule="nonzero"/><path fill="#e5f6f1" d="M 0.886719 0 L 1229.113281 0 L 1229.113281 692 L 0.886719 692 Z M 0.886719 0 " fill-opacity="1" fill-rule="nonzero"/></g><g clip-path="url(#id2)"><g clip-path="url(#id3)"><g clip-path="url(#id4)"><path fill="#bdebdd" d="M 786.207031 843.558594 L 784.089844 844.023438 L 770.277344 835.171875 C 770.566406 834.316406 770.820312 833.3125 771.109375 832.457031 Z M 763.449219 830.019531 L 763.09375 830.570312 L 770.371094 835.230469 C 770.65625 834.378906 770.910156 833.371094 771.199219 832.515625 Z M 786.207031 843.558594 C 789.171875 844.808594 792.316406 845.78125 795.101562 847.308594 C 797.0625 848.304688 798.585938 850.1875 800.484375 851.273438 C 807.535156 855.273438 814.644531 859.175781 821.664062 863.023438 C 822.273438 863.285156 822.886719 863.546875 823.53125 863.957031 C 827.128906 866.652344 830.433594 869.808594 834.292969 871.890625 C 839.410156 874.648438 845.085938 876.335938 849.351562 880.625 L 850.269531 881.214844 C 859.492188 886.082031 868.503906 891.074219 877.808594 895.609375 C 881.851562 897.808594 885.453125 900.503906 888.695312 903.75 C 890.210938 905.242188 892.617188 905.742188 894.550781 906.980469 C 898.71875 909.394531 902.679688 911.929688 906.730469 914.523438 C 907.46875 914.996094 907.941406 916.082031 908.738281 916.460938 C 915.5 919.492188 919.253906 925.792969 924.40625 930.523438 C 925.882812 931.46875 927.378906 932.167969 928.734375 933.296875 C 930.550781 934.71875 932.402344 936.292969 934.15625 937.808594 L 955.660156 950.671875 C 959.605469 952.417969 963.550781 954.167969 967.4375 956.007812 C 968.050781 956.269531 968.28125 957.328125 968.6875 958.109375 C 972.023438 959.59375 975.535156 960.804688 978.953125 961.957031 C 986.085938 963.796875 992.121094 968.570312 999.664062 969.765625 C 1008.183594 971.066406 1016.460938 974.160156 1024.878906 976.433594 C 1027.367188 976.601562 1029.765625 976.707031 1032.257812 976.875 C 1033.382812 976.945312 1034.890625 976.613281 1035.664062 977.238281 C 1040.097656 980.855469 1045.832031 979.203125 1050.691406 981.148438 L 1061.859375 984.796875 C 1064.460938 982.5625 1067.003906 982.242188 1069.535156 984.777344 C 1072.078125 984.457031 1074.5625 984.226562 1077.078125 984.152344 C 1077.960938 984.195312 1078.828125 985.273438 1079.691406 985.953125 C 1084.480469 985.773438 1089.304688 985.746094 1094.0625 985.417969 C 1096.210938 985.105469 1098.324219 984.640625 1100.40625 984.027344 C 1105.417969 982.691406 1110.304688 981.144531 1115.351562 979.960938 C 1116.257812 979.761719 1117.394531 980.621094 1118.433594 981.023438 L 1121.777344 979.660156 C 1123.171875 976.265625 1126.25 976.9375 1128.949219 976.976562 C 1129.25 976.914062 1129.554688 976.847656 1129.914062 976.6875 C 1133.296875 974.046875 1137.472656 973.605469 1141.492188 972.804688 L 1150.269531 969.851562 C 1153.921875 968.8125 1157.757812 967.894531 1161.433594 966.613281 C 1163.9375 965.746094 1166.375 964.578125 1168.902344 963.472656 C 1170.070312 962.660156 1171.238281 961.851562 1172.316406 960.980469 C 1173.089844 960.179688 1173.679688 959.257812 1174.269531 958.335938 C 1174.683594 957.691406 1175.246094 957.011719 1175.75 956.425781 L 1177.566406 957.851562 C 1183.371094 955.074219 1189.117188 952.390625 1194.921875 949.613281 L 1200.59375 944.410156 L 1201.609375 946.878906 C 1206.675781 943.632812 1211.652344 940.324219 1216.71875 937.074219 C 1221.191406 934.355469 1225.753906 931.691406 1230.226562 928.96875 C 1231.335938 928.25 1232.351562 927.472656 1233.183594 926.578125 C 1238.664062 920.863281 1244.140625 915.152344 1249.585938 909.285156 C 1250.417969 908.390625 1250.417969 906.570312 1251.25 905.675781 C 1254.164062 902.34375 1257.351562 899.191406 1260.355469 895.921875 C 1262.082031 894.039062 1263.496094 891.828125 1264.886719 889.859375 C 1266.058594 890.871094 1267.019531 892.003906 1267.320312 891.9375 C 1269.546875 890.898438 1272.78125 890.109375 1273.414062 888.308594 C 1274.945312 884.09375 1277.648438 880.886719 1279.980469 877.445312 C 1280.472656 876.070312 1280.472656 876.070312 1276.96875 875.257812 L 1281.289062 872.566406 C 1281.582031 872.105469 1281.96875 871.707031 1282.296875 871.394531 C 1283.257812 870.710938 1284.582031 870.261719 1285.171875 869.339844 C 1285.761719 868.421875 1285.617188 867.027344 1285.988281 865.835938 C 1286.84375 862.878906 1290.382812 860.597656 1288.675781 856.777344 C 1288.550781 856.566406 1289.71875 855.757812 1290.316406 855.230469 C 1290.796875 854.886719 1291.609375 854.628906 1291.695312 854.292969 C 1292.390625 849.152344 1295.792969 844.449219 1293.871094 838.929688 C 1294.164062 836.652344 1294.640625 834.488281 1296.640625 832.78125 C 1297.390625 832.222656 1297.453125 830.703125 1297.769531 829.605469 C 1298.578125 827.527344 1299.542969 825.417969 1300.109375 823.3125 C 1301.332031 818.769531 1302.371094 814.109375 1303.5 809.507812 C 1304.460938 805.574219 1305.511719 801.703125 1306.136719 797.6875 C 1306.488281 795.3125 1305.957031 792.894531 1305.761719 790.5625 C 1306.261719 786.335938 1306.761719 782.109375 1307.261719 777.882812 L 1307.121094 776.882812 C 1307.046875 776.1875 1306.546875 775.347656 1306.902344 774.792969 C 1307.484375 773.480469 1308.382812 772.886719 1306.625 771.371094 C 1305.238281 770.09375 1306.496094 767.519531 1309.097656 767.109375 C 1309.058594 766.5625 1309.015625 766.019531 1309.070312 765.53125 C 1305.089844 763.632812 1308.550781 762.082031 1309.21875 760.429688 L 1308.929688 759.464844 C 1307.925781 757.785156 1307.074219 756.070312 1306.4375 754.230469 C 1306.210938 753.570312 1306.917969 752.464844 1307.359375 751.574219 C 1308.15625 750.527344 1309.59375 749.5 1309.605469 748.46875 C 1309.605469 743.402344 1309.175781 738.191406 1308.933594 733.097656 C 1306.898438 731.40625 1307.222656 729.277344 1308.21875 727.316406 C 1309.300781 725.023438 1310.71875 722.8125 1312.039062 720.542969 C 1312.582031 718.679688 1313.183594 716.726562 1313.8125 714.53125 C 1313.964844 714.5 1315.207031 714.386719 1315.347656 713.957031 C 1316.007812 711.914062 1316.335938 709.78125 1316.8125 707.621094 C 1315.921875 705.359375 1313.753906 703.066406 1317.394531 701.238281 C 1319.617188 698.375 1318.007812 695.007812 1318.644531 691.777344 C 1320.144531 684.167969 1320.546875 676.238281 1321.433594 668.367188 C 1322.316406 660.097656 1323.835938 651.847656 1323.925781 643.59375 C 1324.015625 638.582031 1322.042969 633.554688 1320.800781 628.601562 C 1320.152344 626.367188 1319.355469 624.167969 1318.40625 622 C 1316.746094 619.117188 1314.933594 616.269531 1313.273438 613.386719 C 1313.148438 613.175781 1314.015625 612.433594 1314.460938 611.9375 L 1312.066406 610.40625 C 1310.054688 609.894531 1308.3125 609.167969 1308.65625 606.402344 C 1308.699219 605.519531 1308.382812 604.796875 1307.707031 604.234375 C 1305.738281 602.84375 1305.800781 601.328125 1306.921875 599.578125 L 1304.847656 597.339844 C 1300.992188 592.007812 1297.164062 586.832031 1293.398438 581.558594 C 1292.832031 580.417969 1292.320312 579.183594 1292.058594 577.972656 L 1291.765625 577.007812 C 1291.039062 576.929688 1289.738281 577.136719 1289.578125 576.777344 C 1288.226562 574.222656 1287.144531 571.449219 1285.945312 568.863281 C 1285.59375 567.988281 1285.246094 567.117188 1284.6875 566.367188 C 1283.632812 565.171875 1282.101562 564.320312 1281.199219 563.09375 C 1278.800781 559.738281 1276.4375 556.535156 1271.453125 556.203125 L 1272.425781 554.488281 C 1269.386719 552.539062 1266.683594 550.679688 1263.859375 549 C 1257.113281 544.9375 1250.394531 541.027344 1243.589844 537.054688 L 1235.050781 533.144531 C 1232.140625 533.230469 1230.386719 531.714844 1229.007812 529.402344 C 1228.269531 528.933594 1227.683594 528.425781 1227.007812 527.863281 C 1226.171875 526.9375 1225.597656 525.402344 1224.558594 524.996094 C 1221.683594 523.804688 1218.699219 523.191406 1215.742188 522.335938 L 1206.335938 517.351562 C 1205.707031 514.480469 1203.023438 515.226562 1201.246094 514.347656 C 1196.683594 511.945312 1191.726562 511.367188 1186.738281 510.640625 C 1183.886719 510.632812 1180.898438 511.445312 1178.605469 508.941406 C 1176.316406 508.253906 1174.03125 507.566406 1171.648438 506.824219 C 1168.597656 505.90625 1165.574219 504.75 1162.523438 503.835938 C 1161.730469 503.457031 1160.964844 503.226562 1160.109375 502.9375 C 1155.792969 502.382812 1151.539062 502.125 1147.28125 501.476562 C 1144.421875 501.074219 1141.542969 499.488281 1139.015625 502.417969 C 1138.453125 503.09375 1137.117188 503.148438 1136.453125 503.375 C 1135.519531 501.996094 1134.996094 499.972656 1134.082031 499.777344 C 1128.449219 498.636719 1122.699219 497.679688 1116.953125 497.117188 C 1112.03125 496.691406 1107.125 497.054688 1102.207031 497.023438 C 1100.914062 497.625 1099.585938 498.074219 1098.285156 498.28125 C 1096.164062 498.347656 1094.101562 498.328125 1092.003906 498.152344 C 1091.585938 498.402344 1091.164062 498.652344 1090.804688 498.8125 C 1085.398438 500.15625 1080.050781 501.40625 1074.644531 502.75 C 1073.527344 503.074219 1072.570312 503.757812 1071.386719 503.78125 C 1065.53125 503.796875 1059.894531 505.902344 1055.289062 509.445312 C 1051.816406 512.027344 1047.96875 513.980469 1044.335938 516.203125 C 1041.128906 518.171875 1037.734375 520.023438 1034.554688 522.144531 C 1032.488281 523.550781 1030.519531 525.40625 1028.578125 527.019531 C 1025.945312 529.101562 1023.1875 530.972656 1020.738281 533.171875 C 1018.023438 535.585938 1015.648438 538.484375 1012.839844 540.839844 C 1011.226562 542.144531 1008.984375 542.398438 1007.96875 544.996094 C 1007.363281 546.554688 1005.273438 548.59375 1003.699219 548.625 C 1001.332031 548.667969 1000.902344 549.949219 1000.292969 551.507812 C 1000.484375 552.019531 1000.582031 552.472656 1000.621094 553.019531 C 998.691406 553.601562 996.761719 554.183594 994.828125 554.765625 L 986.6875 562.40625 L 985.25 563.433594 C 983.601562 564.589844 982.046875 565.800781 980.398438 566.953125 C 979.507812 567.941406 978.429688 568.808594 977.320312 569.527344 C 975.933594 570.070312 974.515625 570.460938 972.914062 570.730469 C 972.238281 571.988281 971.847656 573.816406 970.820312 574.199219 C 967.210938 575.78125 963.375 576.703125 959.703125 578.378906 C 957.117188 579.578125 953.117188 578.316406 952.046875 582.828125 C 951.828125 583.984375 949.265625 584.941406 947.484375 585.488281 C 945.824219 585.855469 944.1875 585.976562 942.519531 585.945312 C 941.308594 586.210938 940.035156 586.171875 938.816406 586.042969 C 933.515625 586.414062 928.34375 587.386719 923.09375 587.273438 C 916.234375 587.035156 909.382812 585.765625 902.472656 586.011719 C 901.835938 585.996094 901.128906 585.671875 900.402344 585.597656 C 896.390625 585.367188 892.199219 585.019531 888.164062 585.03125 C 883.003906 584.976562 877.828125 585.554688 872.636719 585.347656 C 867.839844 585.132812 862.992188 583.976562 858.167969 585.429688 C 856.15625 586.742188 854.269531 586.445312 852.488281 585.171875 L 845.980469 584.382812 C 843.835938 589.761719 839.601562 583.800781 836.296875 585.710938 L 836.453125 584.253906 L 827.421875 583.144531 C 827.1875 583.511719 826.292969 584.5 825.492188 585.546875 C 819.765625 585.773438 814.183594 585.96875 808.515625 586.101562 C 807.917969 586.628906 807.351562 587.304688 806.6875 587.53125 C 804.574219 587.996094 802.332031 588.246094 799.277344 588.757812 C 799.363281 588.421875 799.347656 587.636719 799.484375 586.8125 L 798.875 586.550781 C 796.550781 587.140625 794.191406 587.578125 791.773438 588.109375 C 789.355469 588.636719 787.148438 589.042969 784.882812 589.539062 C 781.964844 589.230469 779.070312 588.675781 776.316406 590.546875 C 775.835938 590.890625 774.578125 590.214844 773.722656 589.925781 C 771.324219 593.066406 767.855469 592.402344 764.546875 592.492188 L 756.03125 596.257812 C 755.792969 599.875 752.421875 599.664062 750.296875 601.160156 L 746.949219 600.703125 C 744.921875 602.652344 743.191406 604.140625 741.492188 605.78125 C 736.691406 608.8125 731.832031 611.933594 726.496094 615.402344 C 726.96875 619.730469 720.777344 617.84375 719.011719 621 L 710.234375 628.625 C 709.519531 629.335938 709.203125 630.433594 708.398438 631.085938 C 704.445312 634.011719 700 636.488281 696.390625 639.894531 C 693.707031 642.460938 692.136719 646.128906 690.070312 649.355469 C 689.625 649.847656 689.179688 650.339844 688.640625 650.777344 C 687.691406 651.855469 686.738281 652.933594 685.878906 654.074219 C 683.886719 657.992188 681.710938 661.796875 681.613281 666.410156 C 681.679688 666.710938 680.5625 667.035156 679.992188 667.320312 C 679.34375 668.332031 678.636719 669.4375 678.171875 670.566406 C 677.476562 672.460938 677.210938 674.5 676.332031 676.277344 C 674.054688 681.050781 672.351562 685.9375 672.328125 691.246094 C 672.335938 694.886719 673.128906 698.515625 673.585938 702.054688 C 673.660156 702.75 672.433594 703.652344 672.238281 704.566406 C 671.191406 712.082031 669.808594 719.511719 669.703125 726.976562 C 669.660156 732.921875 671.195312 738.839844 672.183594 744.800781 C 672.621094 747.160156 672.878906 749.792969 674.097656 751.742188 C 677.539062 757.324219 681.398438 762.652344 685.136719 768.167969 C 688.910156 768.765625 691.753906 771.625 692.488281 775.34375 C 693.285156 775.722656 694.171875 776.164062 694.851562 776.726562 C 697.261719 779.050781 699.636719 781.222656 701.773438 783.761719 C 703.699219 786.03125 706.714844 786.792969 708.847656 788.941406 C 711.472656 791.53125 714.664062 793.445312 717.558594 795.820312 C 720.824219 798.429688 723.96875 801.222656 727.265625 803.984375 C 728.804688 805.230469 730.554688 806.351562 732.09375 807.597656 C 735.222656 807.78125 737.957031 809.796875 739.015625 812.808594 L 757.753906 823.902344 L 763.363281 830.355469 L 771.171875 832.761719 Z M 979.53125 617.578125 L 979.246094 617.007812 L 985.636719 617.980469 C 984.003906 619.921875 982.757812 621.460938 982.015625 622.417969 L 970.484375 622.171875 L 970.109375 621.542969 C 973.300781 620.210938 976.339844 618.910156 979.53125 617.578125 Z M 880.875 684.410156 L 880.527344 685.359375 L 872.066406 683.964844 L 872.105469 682.691406 L 879.4375 682.191406 Z M 907.695312 686.132812 C 907.59375 688.925781 902.492188 690.203125 898.65625 687.875 Z M 1028.402344 978.433594 C 1031.421875 979.195312 1034.875 979.070312 1037.597656 980.296875 C 1041.703125 982.40625 1046.652344 982.585938 1050.960938 980.929688 C 1046.101562 978.988281 1040.367188 980.640625 1035.929688 977.019531 C 1035.160156 976.394531 1033.652344 976.726562 1032.527344 976.65625 C 1030.035156 976.492188 1027.636719 976.382812 1025.144531 976.214844 C 1026.191406 977.015625 1027.152344 978.152344 1028.402344 978.433594 Z M 739.933594 605.171875 C 736.628906 607.082031 733.484375 609.355469 730.183594 611.265625 C 728.679688 611.992188 727.140625 612.566406 725.480469 612.929688 C 724.050781 614.351562 722.527344 615.714844 721.070312 617.382812 C 720.363281 618.488281 719.6875 619.742188 719.164062 620.964844 C 720.925781 617.808594 727.121094 619.699219 726.648438 615.367188 C 732.078125 611.960938 736.933594 608.835938 741.640625 605.746094 C 741.121094 605.542969 740.292969 605.011719 739.933594 605.171875 Z M 1313.851562 608.429688 C 1313.175781 606.441406 1313.074219 604.167969 1311.863281 602.609375 C 1310.652344 601.054688 1308.582031 600.636719 1306.957031 599.726562 C 1305.835938 601.476562 1305.710938 603.089844 1307.738281 604.386719 C 1308.324219 604.890625 1308.734375 605.671875 1308.746094 606.460938 C 1308.402344 609.226562 1310.054688 609.894531 1312.214844 610.371094 Z M 1303.460938 592.8125 C 1302.761719 591.066406 1301.878906 589.203125 1301.027344 587.488281 L 1296.898438 583.800781 C 1295.550781 581.640625 1296.480469 577.558594 1292.089844 578.125 C 1292.355469 579.332031 1292.863281 580.570312 1293.429688 581.710938 C 1297.195312 586.980469 1301.054688 592.3125 1304.882812 597.488281 C 1304.460938 595.921875 1304.035156 594.351562 1303.460938 592.8125 Z M 1111.386719 983.914062 C 1113.796875 982.992188 1116.269531 981.976562 1118.679688 981.050781 C 1117.640625 980.644531 1116.5 979.785156 1115.59375 979.984375 C 1110.550781 981.167969 1105.664062 982.714844 1100.652344 984.050781 C 1104.242188 986.351562 1107.800781 985.253906 1111.386719 983.914062 Z M 961.589844 956.417969 C 963.675781 957.625 966.433594 957.574219 968.839844 958.074219 C 968.433594 957.292969 968.199219 956.238281 967.589844 955.972656 C 963.703125 954.132812 959.757812 952.386719 955.8125 950.636719 C 957.816406 952.574219 959.320312 955.09375 961.589844 956.417969 Z M 793.84375 583.457031 C 793.636719 587.222656 790.671875 585.972656 788.558594 586.4375 C 786.804688 586.742188 783.902344 585.796875 785.09375 589.414062 C 787.359375 588.917969 789.71875 588.480469 791.984375 587.984375 C 794.25 587.484375 796.667969 586.957031 799.085938 586.425781 Z M 1309.902344 772.949219 C 1309.203125 771.203125 1309.375 769.105469 1309.191406 767.167969 C 1306.589844 767.578125 1305.332031 770.152344 1306.71875 771.429688 C 1308.507812 773.097656 1307.515625 773.628906 1306.992188 774.855469 C 1306.789062 775.371094 1307.140625 776.246094 1307.214844 776.941406 C 1308.683594 776.066406 1311.050781 776.023438 1309.902344 772.949219 Z M 680.445312 662.152344 C 680.324219 663.761719 680.140625 665.464844 679.960938 667.167969 C 680.53125 666.882812 681.648438 666.558594 681.582031 666.257812 C 681.679688 661.644531 683.855469 657.84375 685.847656 653.921875 C 682.78125 655.464844 680.714844 658.6875 680.445312 662.152344 Z M 991.820312 554.394531 C 990.355469 555.664062 988.851562 556.390625 988.117188 557.738281 C 987.292969 559.027344 987.203125 560.789062 986.746094 562.316406 L 994.828125 554.765625 Z M 1172.273438 963.683594 C 1174.242188 961.824219 1176.027344 959.851562 1177.625 957.757812 L 1175.808594 956.335938 C 1175.304688 956.921875 1174.832031 957.65625 1174.328125 958.242188 C 1173.738281 959.164062 1173.148438 960.085938 1172.375 960.890625 C 1171.296875 961.757812 1170.222656 962.628906 1168.960938 963.378906 C 1170.175781 963.507812 1171.734375 964.117188 1172.273438 963.683594 Z M 1239.015625 532.4375 C 1237.390625 531.527344 1236.636719 528.445312 1233.839844 529.769531 L 1235.050781 533.144531 L 1243.589844 537.054688 C 1242.132812 535.472656 1240.824219 533.464844 1239.015625 532.4375 Z M 687.050781 771.46875 C 688.773438 772.835938 690.554688 774.105469 692.550781 775.253906 C 691.90625 771.59375 688.96875 768.671875 685.199219 768.074219 C 685.824219 769.125 686.15625 770.636719 687.050781 771.46875 Z M 1206.371094 517.5 L 1215.773438 522.488281 C 1215 518.222656 1210.988281 516.171875 1206.371094 517.5 Z M 1309.367188 780.269531 C 1308.773438 779.371094 1308.125 778.566406 1307.351562 777.941406 C 1306.855469 782.167969 1306.355469 786.394531 1305.855469 790.621094 C 1307.890625 789.066406 1310.285156 782.289062 1309.367188 780.269531 Z M 979.488281 565.332031 L 977.167969 564.496094 L 975.222656 567.535156 C 974.632812 568.453125 973.679688 569.535156 972.9375 570.488281 C 974.390625 570.25 975.867188 569.765625 977.347656 569.285156 C 978.457031 568.566406 979.53125 567.695312 980.425781 566.710938 Z M 802.804688 585.691406 C 801.746094 585.921875 800.628906 586.246094 799.636719 586.78125 C 799.5 587.601562 799.515625 588.390625 799.429688 588.726562 C 802.578125 588.273438 804.726562 587.960938 806.839844 587.496094 C 807.597656 587.332031 808.066406 586.59375 808.664062 586.066406 C 806.777344 585.769531 804.773438 585.652344 802.804688 585.691406 Z M 1298.546875 581.222656 L 1296.898438 583.800781 L 1301.027344 587.488281 C 1302.910156 584.144531 1299.976562 583.046875 1298.546875 581.222656 Z M 1069.390625 985.203125 C 1072.582031 987.117188 1076.53125 987.4375 1079.902344 985.828125 C 1079.039062 985.148438 1078.171875 984.070312 1077.289062 984.027344 C 1074.773438 984.101562 1072.195312 984.273438 1069.746094 984.648438 Z M 1311.949219 755.558594 L 1307.359375 751.574219 C 1307.011719 752.523438 1306.210938 753.570312 1306.4375 754.230469 C 1307.136719 755.980469 1307.925781 757.785156 1308.929688 759.464844 Z M 1312.039062 720.542969 C 1310.71875 722.8125 1309.300781 725.023438 1308.21875 727.316406 C 1307.316406 729.335938 1306.898438 731.40625 1308.933594 733.097656 Z M 934.460938 937.742188 C 932.703125 936.226562 931.003906 934.621094 929.039062 933.230469 C 927.625 932.195312 926.183594 931.402344 924.710938 930.457031 C 927.316406 933.6875 929.453125 937.652344 934.460938 937.742188 Z M 772.914062 588.757812 C 770.765625 589.070312 768.652344 589.535156 766.660156 590.207031 C 765.847656 590.464844 765.472656 591.65625 764.910156 592.332031 C 768.214844 592.242188 771.683594 592.90625 774.085938 589.769531 C 773.566406 589.566406 773.15625 588.785156 772.914062 588.757812 Z M 750.183594 596.671875 L 750.503906 601.03125 C 752.574219 599.628906 756.003906 599.75 756.242188 596.132812 Z M 1314.519531 611.847656 C 1314.074219 612.339844 1313.296875 613.144531 1313.332031 613.292969 C 1314.992188 616.175781 1316.652344 619.058594 1318.464844 621.90625 Z M 1091.945312 498.246094 C 1094.042969 498.417969 1096.105469 498.441406 1098.226562 498.371094 C 1099.585938 498.074219 1100.914062 497.625 1102.148438 497.117188 C 1098.324219 493.757812 1095.308594 498.0625 1091.945312 498.246094 Z M 1299.699219 832.269531 L 1297.859375 829.664062 C 1297.546875 830.761719 1297.390625 832.222656 1296.734375 832.839844 C 1294.734375 834.546875 1294.257812 836.710938 1293.964844 838.992188 Z M 1288.480469 571.394531 C 1287.734375 570.527344 1286.992188 569.664062 1286.1875 568.890625 C 1287.328125 571.566406 1288.46875 574.246094 1289.820312 576.800781 C 1289.980469 577.164062 1291.28125 576.957031 1292.011719 577.035156 C 1290.671875 575.269531 1289.605469 573.285156 1288.480469 571.394531 Z M 1131.480469 977.691406 C 1134.941406 976.140625 1138.277344 974.378906 1141.644531 972.769531 C 1137.625 973.574219 1133.539062 974.074219 1130.066406 976.65625 C 1130.617188 977.007812 1131.269531 977.816406 1131.480469 977.691406 Z M 1122.890625 980.761719 L 1129.191406 977.003906 C 1126.433594 977.054688 1123.507812 976.351562 1122.019531 979.683594 C 1122.269531 980.105469 1122.582031 980.433594 1122.890625 980.761719 Z M 994.738281 554.707031 C 996.667969 554.125 998.691406 553.601562 1000.53125 552.960938 C 1000.492188 552.414062 1000.390625 551.960938 1000.199219 551.449219 C 996.648438 549.695312 995.566406 551.988281 994.738281 554.707031 Z M 1062.070312 984.671875 L 1069.390625 985.203125 L 1069.746094 984.652344 C 1067.210938 982.117188 1064.667969 982.4375 1062.070312 984.671875 Z M 1282.652344 875.910156 C 1282.722656 874.785156 1281.855469 873.710938 1281.378906 872.628906 L 1277.058594 875.316406 C 1280.5625 876.132812 1280.5625 876.132812 1280.074219 877.503906 C 1280.972656 876.914062 1282.601562 876.398438 1282.652344 875.910156 Z M 1178.699219 509 C 1180.988281 511.503906 1183.976562 510.691406 1186.828125 510.699219 C 1184.785156 506.792969 1181.636719 508.671875 1178.699219 509 Z M 858.15625 583.21875 L 852.761719 583.527344 C 852.734375 583.773438 852.566406 584.441406 852.457031 585.019531 C 854.332031 586.351562 856.15625 586.742188 858.132812 585.28125 Z M 1229.007812 529.40625 C 1230.324219 531.808594 1232.175781 533.382812 1235.050781 533.144531 L 1233.839844 529.769531 Z M 739.101562 812.476562 C 738.042969 809.460938 735.308594 807.449219 732.179688 807.261719 Z M 1201.609375 946.878906 L 1200.558594 944.261719 L 1194.890625 949.460938 C 1197.941406 950.375 1199.847656 948.613281 1201.609375 946.878906 Z M 985.214844 563.285156 C 982.453125 561.515625 981.003906 563.574219 979.488281 565.332031 L 980.273438 566.742188 C 982.011719 565.648438 983.566406 564.4375 985.214844 563.285156 Z M 1311.519531 761.90625 L 1309.3125 760.488281 C 1308.644531 762.140625 1305.125 763.785156 1309.160156 765.589844 Z M 1317.484375 701.296875 C 1313.90625 703.03125 1316.011719 705.421875 1316.902344 707.679688 Z M 970.484375 622.171875 L 982.015625 622.417969 C 982.757812 621.460938 984.0625 619.832031 985.636719 617.980469 L 979.246094 617.007812 L 979.53125 617.578125 C 976.492188 618.878906 973.300781 620.210938 970.199219 621.601562 Z M 871.953125 682.722656 L 871.917969 684 L 880.375 685.390625 L 880.722656 684.445312 L 879.226562 682.316406 Z M 907.601562 686.074219 L 898.5625 687.816406 C 902.398438 690.144531 907.503906 688.867188 907.601562 686.074219 Z M 907.601562 686.074219 " fill-opacity="1" fill-rule="nonzero"/></g></g></g><g clip-path="url(#id5)"><g clip-path="url(#id6)"><g clip-path="url(#id7)"><path fill="#d6c3ff" d="M -113.527344 834.445312 C -114.429688 832.585938 -115.261719 830.757812 -116.0625 828.851562 C -118.980469 822.273438 -121.46875 815.4375 -124.722656 809.070312 C -127.671875 803.238281 -129.769531 797.390625 -130.296875 790.953125 C -130.445312 788.875 -131.816406 786.925781 -132.5625 784.875 C -134.855469 778.867188 -137.25 772.910156 -139.195312 766.867188 C -139.882812 764.667969 -139.484375 762.035156 -139.414062 759.617188 C -139.367188 759.046875 -138.425781 758.558594 -137.722656 757.8125 C -139.972656 755.277344 -141.53125 752.246094 -140.261719 748.425781 L -142.421875 739.605469 C -142.667969 737.570312 -142.738281 735.523438 -143.164062 733.507812 C -144.402344 727.394531 -145.992188 721.316406 -147.132812 715.15625 C -148.039062 710.175781 -148.347656 705.171875 -148.980469 700.128906 C -148.753906 696.84375 -148.203125 693.59375 -148.328125 690.34375 C -148.484375 687.839844 -149.589844 685.402344 -150.316406 682.851562 C -149.84375 680.921875 -149.46875 679.039062 -148.996094 677.109375 C -147.847656 673.835938 -147.296875 670.585938 -149.328125 667.460938 C -148.902344 666.777344 -148.550781 666.066406 -148.152344 665.460938 C -147.039062 663.855469 -147.464844 663.1875 -149.394531 663.390625 C -149.726562 661.578125 -150.054688 659.769531 -150.386719 657.957031 L -151.183594 653.359375 C -151.347656 650.429688 -151.4375 647.53125 -151.625 644.679688 C -151.664062 644.328125 -151.847656 643.921875 -151.738281 643.625 C -149.570312 638.542969 -151.429688 632.953125 -150.15625 627.785156 C -149.648438 626.878906 -149.183594 625.875 -148.941406 624.785156 C -148.464844 621.507812 -148.09375 618.277344 -147.71875 615.046875 C -147.96875 613.6875 -148.730469 612.136719 -148.359375 610.925781 C -145.488281 602.398438 -142.832031 593.789062 -139.324219 585.585938 C -137.40625 581.167969 -133.59375 577.546875 -130.910156 573.332031 C -128.066406 568.921875 -125.492188 564.328125 -122.800781 559.863281 C -122.144531 559.691406 -121.070312 559.757812 -120.832031 559.339844 C -119.941406 557.652344 -119.199219 555.910156 -118.5625 554.210938 C -116.230469 551.382812 -113.722656 548.53125 -111.4375 545.601562 C -109.9375 543.636719 -109.140625 540.394531 -107.234375 539.597656 C -104.109375 538.246094 -101.527344 534.75 -97.234375 536.113281 C -96.40625 532.800781 -93.976562 531.273438 -90.585938 530.78125 L -81.449219 530.261719 C -79.460938 529.238281 -78.351562 528.308594 -77.039062 527.960938 C -72.648438 526.832031 -68.238281 525.878906 -63.832031 524.925781 C -61.59375 524.589844 -59.3125 524.351562 -57.050781 523.941406 C -53 523.273438 -48.972656 522.429688 -44.90625 521.941406 C -43.957031 521.875 -42.875 523.042969 -42.386719 523.3125 C -40.464844 522.6875 -38.71875 522.078125 -36.980469 521.722656 C -34.835938 521.183594 -32.699219 520.890625 -30.503906 520.875 C -27.214844 521.101562 -23.953125 521.402344 -20.703125 521.953125 C -11.160156 523.273438 -1.5625 524.445312 7.914062 526.160156 C 10.992188 526.726562 13.777344 528.957031 16.78125 530.171875 C 24.980469 533.261719 33.234375 536.203125 41.464844 539.21875 L 50.699219 542.023438 C 51.402344 542.625 52.019531 543.445312 52.804688 543.828125 C 55.316406 544.773438 58.066406 545.304688 60.523438 546.398438 C 64.253906 548.140625 67.875 550.179688 71.519531 552.140625 C 73.238281 552.957031 75.085938 553.652344 76.671875 554.589844 C 84.03125 558.792969 91.277344 563.292969 98.773438 567.128906 C 103.503906 569.582031 108.691406 571.03125 113.613281 572.972656 C 116.761719 574.242188 119.800781 575.808594 123.023438 577.105469 C 123.9375 577.367188 124.90625 577.476562 125.859375 577.414062 L 127.25 580.890625 L 133.246094 580.871094 C 137.890625 582.875 142.582031 584.980469 147.226562 586.980469 C 150.421875 588.355469 153.625 589.476562 156.875 590.699219 C 162.859375 592.953125 168.558594 595.523438 173.46875 599.730469 C 174.464844 600.445312 175.515625 601.011719 176.570312 601.574219 C 177.789062 602.371094 178.878906 603.289062 179.800781 603.972656 C 188.886719 606.722656 195.863281 613.058594 204.027344 617.144531 C 204.46875 619.332031 208.824219 623.671875 210.746094 623.722656 C 210.992188 623.730469 211.1875 623.214844 211.449219 622.972656 C 215.039062 625.757812 218.65625 628.472656 222.089844 631.449219 C 224.671875 633.773438 226.867188 636.453125 229.398438 638.921875 C 231.371094 640.847656 233.53125 642.503906 235.636719 644.308594 C 237.113281 645.539062 238.949219 646.484375 240.195312 647.878906 C 248.722656 657.496094 256.0625 668.019531 262.273438 679.292969 C 264.101562 682.511719 264.574219 686.398438 265.9375 689.945312 C 267.300781 693.496094 268.988281 697.078125 270.601562 700.636719 C 270.632812 703.683594 270.667969 706.730469 270.726562 709.703125 L 270.082031 709.628906 L 272.695312 716.347656 C 273.34375 724.261719 273.914062 732.148438 274.636719 740.089844 C 274.945312 743.070312 275.710938 745.972656 275.917969 749 C 276.054688 751.328125 275.515625 753.65625 275.300781 756.019531 L 272.203125 772.972656 C 272.089844 773.945312 271.878906 774.957031 271.765625 775.929688 L 266.167969 790.339844 C 265.9375 790.507812 265.601562 790.71875 265.574219 790.792969 C 267.621094 796.113281 264.269531 800.753906 263.210938 805.582031 C 262.019531 811.203125 259.269531 816.488281 257.386719 821.929688 C 256.265625 825.132812 255.441406 828.445312 254.539062 831.734375 C 254.511719 831.804688 254.53125 831.980469 254.476562 832.128906 L 249.109375 845.027344 C 248.230469 847.140625 247.203125 849.199219 246.792969 851.40625 C 246.167969 854.625 245.53125 855.648438 242.601562 856.484375 C 241.175781 859.152344 244.035156 862.082031 240.566406 864.570312 C 237.488281 866.699219 236.882812 870.769531 234.96875 873.839844 C 229.320312 883.007812 221.164062 889.882812 212.628906 896.191406 C 208.207031 899.414062 203.90625 902.769531 199.441406 905.890625 C 197.824219 907.050781 195.828125 907.648438 193.96875 908.550781 C 187.730469 911.679688 181.683594 914.964844 175.304688 917.789062 C 172.179688 919.140625 168.621094 919.402344 165.238281 920.320312 C 164.308594 920.558594 163.613281 921.730469 162.734375 921.820312 C 158.417969 922.300781 154.8125 924.484375 151.023438 926.257812 C 147.640625 927.851562 144.203125 929.589844 140.53125 930.148438 C 135.886719 930.839844 132.296875 933.871094 127.84375 934.722656 C 123.386719 935.574219 118.8125 937.644531 114.210938 938.4375 C 108.074219 939.5 101.765625 939.902344 95.546875 940.511719 C 92.035156 940.875 88.375 940.507812 84.929688 941.148438 C 81.132812 941.824219 77.65625 942.539062 75.859375 937.902344 C 71.714844 943.082031 66.15625 942.167969 61.5 941.761719 C 55.105469 941.042969 48.9375 939.054688 42.332031 939.347656 C 39.578125 939.492188 36.679688 938.230469 33.863281 937.421875 C 28.300781 935.832031 22.796875 934.097656 17.210938 932.582031 C 15.898438 932.257812 14.273438 932.992188 12.988281 932.59375 C 3.78125 929.714844 -5.472656 926.734375 -14.671875 923.605469 C -21.625 921.242188 -28.847656 919.363281 -35.179688 915.796875 C -42.34375 911.75 -50.148438 908.726562 -56.257812 902.546875 C -59.671875 899.070312 -63.574219 895.996094 -67.136719 892.464844 C -73.511719 886.101562 -80.636719 880.382812 -87.402344 874.378906 C -88.4375 873.3125 -89.265625 872.160156 -90.042969 870.855469 C -93.914062 865.011719 -97.816406 859.246094 -101.660156 853.328125 C -104.234375 849.410156 -106.5 845.351562 -108.972656 841.386719 C -109.425781 840.792969 -109.902344 840.277344 -110.511719 839.878906 C -109.652344 837.589844 -111.238281 834.632812 -113.527344 834.445312 Z M -22.816406 898.203125 L -22.277344 897.222656 L -34.300781 890.167969 L -34.964844 891.265625 C -31.867188 895.128906 -28.042969 897.75 -22.816406 898.203125 Z M 21.242188 559.753906 C 15.554688 556.9375 11.867188 557.320312 11.984375 560.820312 C 14.941406 559.910156 18.410156 565.261719 21.242188 559.753906 Z M -72.773438 524.929688 C -78.855469 526.515625 -84.742188 528.933594 -90.667969 531 L -81.53125 530.480469 C -79.542969 529.460938 -78.433594 528.53125 -77.121094 528.179688 C -72.730469 527.054688 -68.324219 526.101562 -63.988281 525.121094 C -66.980469 525.003906 -70.121094 524.15625 -72.773438 524.929688 Z M 70.925781 548.796875 L 70.488281 549.730469 C 65.300781 544.910156 58.660156 544.851562 52.535156 542.96875 L 50.339844 542.308594 C 51.039062 542.910156 51.65625 543.730469 52.441406 544.113281 C 54.953125 545.058594 57.707031 545.589844 60.164062 546.683594 C 63.894531 548.425781 67.511719 550.464844 71.160156 552.425781 Z M -151.929688 619.277344 C -151.738281 622.128906 -150.871094 624.984375 -150.257812 627.828125 C -149.75 626.925781 -149.285156 625.917969 -149.042969 624.832031 C -148.566406 621.554688 -148.195312 618.324219 -147.820312 615.089844 C -151.292969 614.457031 -152.0625 616.949219 -151.929688 619.277344 Z M 272.652344 707.730469 C 271.722656 705.949219 271.78125 703.105469 270.285156 701.023438 C 270.320312 704.070312 270.351562 707.117188 270.414062 710.09375 L 269.765625 710.015625 L 272.382812 716.734375 C 272.71875 713.828125 274.542969 711.226562 272.652344 707.730469 Z M 276.054688 757.820312 C 276.121094 757.421875 275.34375 756.792969 274.867188 756.277344 L 271.769531 773.230469 C 273.1875 768.121094 274.710938 762.960938 276.054688 757.820312 Z M 267.832031 789.28125 C 268.8125 787.796875 269.359375 785.894531 270.582031 784.671875 C 273.207031 781.949219 273.210938 779.253906 271.375 776.289062 L 265.804688 790.625 C 266.472656 790.203125 267.433594 789.890625 267.832031 789.28125 Z M -150.375 693.535156 C -150.136719 695.816406 -149.621094 698.03125 -149.109375 700.25 C -148.882812 696.960938 -148.332031 693.714844 -148.457031 690.460938 C -148.613281 687.960938 -149.71875 685.519531 -150.445312 682.972656 C -150.429688 686.515625 -150.566406 690.007812 -150.375 693.535156 Z M -151.28125 663.691406 C -150.96875 663.976562 -150.152344 663.609375 -149.554688 663.582031 C -149.882812 661.773438 -150.214844 659.960938 -150.542969 658.152344 L -151.34375 653.550781 C -153.386719 656.070312 -153.449219 661.609375 -151.28125 663.691406 Z M 203.710938 617.53125 C 204.152344 619.71875 208.507812 624.058594 210.429688 624.109375 C 210.679688 624.117188 210.875 623.601562 211.132812 623.363281 C 209.527344 620.226562 207.945312 617.269531 203.710938 617.53125 Z M 125.574219 577.730469 L 126.964844 581.203125 L 132.960938 581.1875 C 132.222656 578.210938 128.273438 576.386719 125.574219 577.730469 Z M 51.191406 539.59375 C 47.855469 539.265625 44.503906 539.4375 41.175781 539.53125 L 50.414062 542.335938 L 52.609375 542.996094 C 52.058594 541.777344 51.691406 539.613281 51.191406 539.59375 Z M -110.570312 840.027344 C -109.578125 837.617188 -111.164062 834.660156 -113.453125 834.472656 C -114.742188 837.441406 -113.332031 839.070312 -110.570312 840.027344 Z M -143.605469 741.855469 C -142.695312 744.136719 -141.375 746.234375 -140.261719 748.425781 L -142.449219 739.679688 C -142.902344 740.433594 -143.835938 741.347656 -143.605469 741.855469 Z M -149.050781 677.257812 C -147.902344 673.980469 -147.355469 670.734375 -149.382812 667.609375 C -151.308594 670.929688 -149.453125 674.070312 -149.050781 677.257812 Z M -122.957031 560.058594 C -122.300781 559.882812 -121.230469 559.949219 -120.988281 559.535156 C -120.097656 557.847656 -119.359375 556.101562 -118.71875 554.40625 C -121.742188 555.039062 -122.75 557.269531 -122.957031 560.058594 Z M -22.277344 897.222656 L -34.300781 890.167969 L -34.964844 891.265625 C -31.867188 895.128906 -28.042969 897.75 -22.816406 898.203125 Z M 11.984375 560.820312 C 14.941406 559.910156 18.382812 565.335938 21.242188 559.753906 C 15.582031 556.863281 11.867188 557.320312 11.984375 560.820312 Z M 11.984375 560.820312 " fill-opacity="1" fill-rule="nonzero"/></g></g></g></svg>