<svg xmlns="http://www.w3.org/2000/svg" xmlns:xlink="http://www.w3.org/1999/xlink" width="1640" zoomAndPan="magnify" viewBox="0 0 1230 693.000001" height="924" preserveAspectRatio="xMidYMid meet" version="1.0"><defs><clipPath id="id1"><path d="M 0.886719 0 L 1229.113281 0 L 1229.113281 692 L 0.886719 692 Z M 0.886719 0 " clip-rule="nonzero"/></clipPath><clipPath id="id2"><path d="M 689 274 L 1229.113281 274 L 1229.113281 692 L 689 692 Z M 689 274 " clip-rule="nonzero"/></clipPath><clipPath id="id3"><path d="M 1172.339844 858.695312 L 647.019531 522.203125 L 921.300781 94 L 1446.621094 430.492188 Z M 1172.339844 858.695312 " clip-rule="nonzero"/></clipPath><clipPath id="id4"><path d="M 1172.339844 858.695312 L 647.019531 522.203125 L 921.300781 94 L 1446.621094 430.492188 Z M 1172.339844 858.695312 " clip-rule="nonzero"/></clipPath><clipPath id="id5"><path d="M 0.886719 299 L 297 299 L 297 692 L 0.886719 692 Z M 0.886719 299 " clip-rule="nonzero"/></clipPath><clipPath id="id6"><path d="M -81.363281 260.960938 L 346.152344 422 L 210.980469 780.832031 L -216.535156 619.792969 Z M -81.363281 260.960938 " clip-rule="nonzero"/></clipPath><clipPath id="id7"><path d="M -81.363281 260.960938 L 346.152344 422 L 210.980469 780.832031 L -216.535156 619.792969 Z M -81.363281 260.960938 " clip-rule="nonzero"/></clipPath></defs><g clip-path="url(#id1)"><path fill="#ffffff" d="M 0.886719 0 L 1229.113281 0 L 1229.113281 699.492188 L 0.886719 699.492188 Z M 0.886719 0 " fill-opacity="1" fill-rule="nonzero"/><path fill="#e5f6f1" d="M 0.886719 0 L 1229.113281 0 L 1229.113281 692 L 0.886719 692 Z M 0.886719 0 " fill-opacity="1" fill-rule="nonzero"/><path fill="#ffffff" d="M 0.886719 0 L 1229.113281 0 L 1229.113281 692 L 0.886719 692 Z M 0.886719 0 " fill-opacity="1" fill-rule="nonzero"/><path fill="#e5f6f1" d="M 0.886719 0 L 1229.113281 0 L 1229.113281 692 L 0.886719 692 Z M 0.886719 0 " fill-opacity="1" fill-rule="nonzero"/></g><g clip-path="url(#id2)"><g clip-path="url(#id3)"><g clip-path="url(#id4)"><path fill="#bdebdd" d="M 806.347656 622.441406 L 804.234375 622.90625 L 790.417969 614.058594 C 790.707031 613.203125 790.960938 612.195312 791.25 611.34375 Z M 783.589844 608.902344 L 783.238281 609.457031 L 790.511719 614.117188 C 790.800781 613.261719 791.054688 612.253906 791.34375 611.402344 Z M 806.347656 622.441406 C 809.3125 623.691406 812.457031 624.667969 815.246094 626.191406 C 817.207031 627.1875 818.726562 629.070312 820.628906 630.160156 C 827.679688 634.15625 834.789062 638.0625 841.804688 641.90625 C 842.417969 642.167969 843.027344 642.429688 843.671875 642.84375 C 847.273438 645.539062 850.574219 648.695312 854.4375 650.777344 C 859.554688 653.535156 865.226562 655.21875 869.492188 659.511719 L 870.414062 660.101562 C 879.632812 664.96875 888.644531 669.960938 897.949219 674.492188 C 901.996094 676.695312 905.59375 679.386719 908.839844 682.636719 C 910.351562 684.125 912.757812 684.628906 914.691406 685.867188 C 918.863281 688.277344 922.820312 690.8125 926.875 693.410156 C 927.609375 693.882812 928.085938 694.964844 928.882812 695.34375 C 935.640625 698.375 939.398438 704.679688 944.550781 709.40625 C 946.023438 710.351562 947.523438 711.050781 948.878906 712.179688 C 950.695312 713.601562 952.542969 715.175781 954.300781 716.691406 L 975.800781 729.554688 C 979.746094 731.304688 983.695312 733.050781 987.578125 734.890625 C 988.191406 735.152344 988.421875 736.210938 988.832031 736.992188 C 992.164062 738.480469 995.675781 739.6875 999.097656 740.839844 C 1006.230469 742.679688 1012.261719 747.453125 1019.808594 748.652344 C 1028.328125 749.949219 1036.605469 753.046875 1045.019531 755.316406 C 1047.511719 755.484375 1049.910156 755.59375 1052.398438 755.757812 C 1053.523438 755.828125 1055.035156 755.496094 1055.804688 756.121094 C 1060.238281 759.742188 1065.972656 758.089844 1070.832031 760.03125 L 1082.003906 763.679688 C 1084.601562 761.449219 1087.144531 761.128906 1089.679688 763.660156 C 1092.222656 763.339844 1094.703125 763.113281 1097.222656 763.035156 C 1098.101562 763.082031 1098.972656 764.15625 1099.832031 764.839844 C 1104.625 764.660156 1109.445312 764.632812 1114.203125 764.300781 C 1116.351562 763.988281 1118.46875 763.523438 1120.550781 762.910156 C 1125.5625 761.574219 1130.449219 760.027344 1135.492188 758.84375 C 1136.398438 758.644531 1137.539062 759.503906 1138.578125 759.910156 L 1141.921875 758.542969 C 1143.3125 755.148438 1146.390625 755.820312 1149.089844 755.863281 C 1149.394531 755.796875 1149.695312 755.730469 1150.058594 755.570312 C 1153.4375 752.929688 1157.617188 752.488281 1161.636719 751.6875 L 1170.410156 748.734375 C 1174.0625 747.699219 1177.898438 746.777344 1181.578125 745.496094 C 1184.078125 744.632812 1186.515625 743.464844 1189.042969 742.355469 C 1190.210938 741.546875 1191.382812 740.734375 1192.457031 739.867188 C 1193.230469 739.0625 1193.820312 738.140625 1194.410156 737.21875 C 1194.824219 736.574219 1195.390625 735.898438 1195.894531 735.3125 L 1197.710938 736.734375 C 1203.515625 733.957031 1209.261719 731.273438 1215.066406 728.496094 L 1220.734375 723.296875 L 1221.75 725.765625 C 1226.820312 722.515625 1231.792969 719.207031 1236.863281 715.960938 C 1241.332031 713.238281 1245.894531 710.574219 1250.367188 707.855469 C 1251.476562 707.136719 1252.492188 706.359375 1253.328125 705.464844 C 1258.804688 699.75 1264.285156 694.035156 1269.730469 688.171875 C 1270.5625 687.277344 1270.558594 685.457031 1271.390625 684.558594 C 1274.304688 681.230469 1277.492188 678.078125 1280.496094 674.804688 C 1282.222656 672.921875 1283.640625 670.710938 1285.027344 668.746094 C 1286.199219 669.753906 1287.160156 670.890625 1287.464844 670.824219 C 1289.691406 669.78125 1292.921875 668.992188 1293.554688 667.191406 C 1295.085938 662.976562 1297.789062 659.773438 1300.125 656.332031 C 1300.613281 654.957031 1300.613281 654.957031 1297.109375 654.140625 L 1301.429688 651.453125 C 1301.726562 650.992188 1302.113281 650.589844 1302.441406 650.28125 C 1303.398438 649.597656 1304.726562 649.148438 1305.316406 648.226562 C 1305.90625 647.304688 1305.757812 645.910156 1306.132812 644.722656 C 1306.988281 641.761719 1310.527344 639.484375 1308.820312 635.660156 C 1308.691406 635.449219 1309.863281 634.640625 1310.457031 634.113281 C 1310.9375 633.769531 1311.753906 633.511719 1311.835938 633.179688 C 1312.53125 628.039062 1315.9375 623.332031 1314.015625 617.816406 C 1314.308594 615.535156 1314.785156 613.371094 1316.785156 611.667969 C 1317.53125 611.105469 1317.597656 609.589844 1317.910156 608.492188 C 1318.722656 606.414062 1319.683594 604.300781 1320.253906 602.195312 C 1321.472656 597.652344 1322.511719 592.992188 1323.640625 588.390625 C 1324.601562 584.460938 1325.652344 580.585938 1326.277344 576.570312 C 1326.628906 574.195312 1326.101562 571.78125 1325.90625 569.445312 C 1326.40625 565.21875 1326.902344 560.992188 1327.402344 556.765625 L 1327.265625 555.769531 C 1327.191406 555.070312 1326.691406 554.230469 1327.042969 553.679688 C 1327.625 552.363281 1328.527344 551.769531 1326.769531 550.253906 C 1325.378906 548.976562 1326.636719 546.40625 1329.238281 545.992188 C 1329.199219 545.449219 1329.160156 544.902344 1329.210938 544.414062 C 1325.234375 542.515625 1328.691406 540.964844 1329.359375 539.316406 L 1329.070312 538.351562 C 1328.070312 536.667969 1327.21875 534.957031 1326.578125 533.117188 C 1326.355469 532.453125 1327.0625 531.347656 1327.5 530.460938 C 1328.300781 529.414062 1329.738281 528.386719 1329.75 527.355469 C 1329.75 522.289062 1329.320312 517.078125 1329.074219 511.984375 C 1327.042969 510.292969 1327.367188 508.160156 1328.363281 506.203125 C 1329.445312 503.90625 1330.859375 501.695312 1332.183594 499.425781 C 1332.726562 497.566406 1333.328125 495.613281 1333.953125 493.417969 C 1334.105469 493.382812 1335.347656 493.269531 1335.492188 492.84375 C 1336.152344 490.796875 1336.476562 488.667969 1336.953125 486.503906 C 1336.0625 484.246094 1333.898438 481.949219 1337.535156 480.121094 C 1339.757812 477.261719 1338.148438 473.890625 1338.789062 470.664062 C 1340.289062 463.050781 1340.691406 455.125 1341.578125 447.25 C 1342.457031 438.980469 1343.976562 430.730469 1344.070312 422.476562 C 1344.160156 417.46875 1342.1875 412.4375 1340.945312 407.484375 C 1340.296875 405.25 1339.496094 403.050781 1338.546875 400.882812 C 1336.886719 398 1335.074219 395.152344 1333.414062 392.269531 C 1333.289062 392.0625 1334.15625 391.316406 1334.601562 390.824219 L 1332.207031 389.289062 C 1330.195312 388.78125 1328.453125 388.054688 1328.796875 385.285156 C 1328.84375 384.40625 1328.527344 383.683594 1327.847656 383.117188 C 1325.882812 381.730469 1325.945312 380.210938 1327.066406 378.460938 L 1324.992188 376.222656 C 1321.132812 370.894531 1317.304688 365.714844 1313.539062 360.445312 C 1312.972656 359.300781 1312.464844 358.066406 1312.199219 356.859375 L 1311.910156 355.894531 C 1311.179688 355.816406 1309.878906 356.019531 1309.71875 355.660156 C 1308.371094 353.105469 1307.289062 350.335938 1306.085938 347.746094 C 1305.738281 346.875 1305.386719 346 1304.828125 345.253906 C 1303.773438 344.058594 1302.242188 343.207031 1301.339844 341.980469 C 1298.941406 338.625 1296.578125 335.421875 1291.597656 335.089844 L 1292.566406 333.371094 C 1289.527344 331.425781 1286.824219 329.5625 1284.003906 327.886719 C 1277.253906 323.824219 1270.539062 319.910156 1263.730469 315.941406 L 1255.195312 312.03125 C 1252.285156 312.113281 1250.527344 310.597656 1249.148438 308.289062 C 1248.414062 307.816406 1247.828125 307.3125 1247.148438 306.746094 C 1246.3125 305.824219 1245.738281 304.285156 1244.699219 303.878906 C 1241.828125 302.6875 1238.84375 302.074219 1235.882812 301.21875 L 1226.480469 296.234375 C 1225.851562 293.363281 1223.164062 294.113281 1221.390625 293.234375 C 1216.824219 290.828125 1211.867188 290.253906 1206.878906 289.527344 C 1204.027344 289.519531 1201.039062 290.332031 1198.75 287.824219 C 1196.460938 287.136719 1194.171875 286.453125 1191.792969 285.707031 C 1188.742188 284.792969 1185.71875 283.632812 1182.667969 282.71875 C 1181.871094 282.339844 1181.109375 282.109375 1180.253906 281.824219 C 1175.933594 281.265625 1171.683594 281.011719 1167.425781 280.359375 C 1164.566406 279.957031 1161.683594 278.371094 1159.160156 281.300781 C 1158.59375 281.980469 1157.261719 282.035156 1156.597656 282.257812 C 1155.660156 280.878906 1155.140625 278.855469 1154.226562 278.660156 C 1148.59375 277.519531 1142.839844 276.5625 1137.097656 276.003906 C 1132.175781 275.578125 1127.265625 275.941406 1122.351562 275.910156 C 1121.058594 276.507812 1119.730469 276.957031 1118.429688 277.164062 C 1116.308594 277.234375 1114.242188 277.210938 1112.148438 277.035156 C 1111.726562 277.289062 1111.304688 277.539062 1110.945312 277.695312 C 1105.539062 279.039062 1100.191406 280.289062 1094.785156 281.632812 C 1093.667969 281.957031 1092.710938 282.644531 1091.527344 282.664062 C 1085.671875 282.679688 1080.039062 284.789062 1075.429688 288.332031 C 1071.957031 290.914062 1068.109375 292.863281 1064.480469 295.085938 C 1061.269531 297.054688 1057.875 298.910156 1054.699219 301.03125 C 1052.628906 302.433594 1050.660156 304.289062 1048.71875 305.902344 C 1046.085938 307.984375 1043.328125 309.855469 1040.882812 312.054688 C 1038.164062 314.472656 1035.792969 317.367188 1032.980469 319.726562 C 1031.367188 321.027344 1029.128906 321.28125 1028.113281 323.878906 C 1027.503906 325.4375 1025.417969 327.480469 1023.839844 327.507812 C 1021.476562 327.550781 1021.042969 328.835938 1020.433594 330.394531 C 1020.625 330.90625 1020.726562 331.359375 1020.765625 331.902344 C 1018.835938 332.484375 1016.902344 333.066406 1014.972656 333.648438 L 1006.828125 341.292969 L 1005.390625 342.320312 C 1003.742188 343.472656 1002.1875 344.683594 1000.539062 345.835938 C 999.648438 346.824219 998.570312 347.695312 997.460938 348.414062 C 996.078125 348.953125 994.65625 349.34375 993.054688 349.617188 C 992.378906 350.871094 991.988281 352.699219 990.964844 353.082031 C 987.351562 354.667969 983.515625 355.585938 979.84375 357.261719 C 977.257812 358.460938 973.261719 357.199219 972.191406 361.710938 C 971.96875 362.867188 969.40625 363.824219 967.628906 364.375 C 965.964844 364.738281 964.328125 364.859375 962.660156 364.828125 C 961.453125 365.09375 960.175781 365.058594 958.960938 364.925781 C 953.65625 365.296875 948.488281 366.273438 943.238281 366.15625 C 936.375 365.917969 929.527344 364.648438 922.613281 364.898438 C 921.976562 364.878906 921.273438 364.558594 920.542969 364.480469 C 916.535156 364.25 912.339844 363.902344 908.304688 363.917969 C 903.148438 363.859375 897.96875 364.441406 892.777344 364.230469 C 887.980469 364.015625 883.136719 362.863281 878.308594 364.316406 C 876.300781 365.628906 874.414062 365.328125 872.628906 364.054688 L 866.125 363.265625 C 863.976562 368.644531 859.742188 362.683594 856.441406 364.597656 L 856.59375 363.136719 L 847.5625 362.027344 C 847.328125 362.398438 846.4375 363.382812 845.636719 364.429688 C 839.90625 364.65625 834.328125 364.851562 828.65625 364.984375 C 828.058594 365.511719 827.496094 366.191406 826.832031 366.414062 C 824.714844 366.878906 822.476562 367.132812 819.421875 367.644531 C 819.507812 367.308594 819.492188 366.519531 819.628906 365.699219 L 819.015625 365.4375 C 816.691406 366.023438 814.332031 366.460938 811.914062 366.992188 C 809.5 367.523438 807.289062 367.925781 805.023438 368.425781 C 802.105469 368.113281 799.214844 367.558594 796.457031 369.429688 C 795.976562 369.773438 794.722656 369.097656 793.867188 368.8125 C 791.464844 371.949219 787.996094 371.285156 784.691406 371.375 L 776.171875 375.144531 C 775.9375 378.757812 772.566406 378.546875 770.4375 380.042969 L 767.09375 379.589844 C 765.066406 381.539062 763.332031 383.027344 761.632812 384.664062 C 756.832031 387.695312 751.976562 390.820312 746.640625 394.285156 C 747.113281 398.613281 740.917969 396.726562 739.15625 399.882812 L 730.375 407.507812 C 729.660156 408.21875 729.347656 409.316406 728.539062 409.96875 C 724.589844 412.894531 720.144531 415.375 716.535156 418.777344 C 713.851562 421.34375 712.277344 425.015625 710.214844 428.238281 C 709.769531 428.730469 709.320312 429.226562 708.785156 429.660156 C 707.832031 430.738281 706.882812 431.820312 706.023438 432.957031 C 704.03125 436.878906 701.855469 440.679688 701.757812 445.292969 C 701.824219 445.59375 700.707031 445.917969 700.136719 446.203125 C 699.484375 447.214844 698.777344 448.320312 698.3125 449.453125 C 697.621094 451.347656 697.355469 453.382812 696.476562 455.160156 C 694.195312 459.933594 692.496094 464.820312 692.472656 470.132812 C 692.476562 473.773438 693.269531 477.398438 693.730469 480.941406 C 693.804688 481.636719 692.574219 482.539062 692.378906 483.453125 C 691.335938 490.964844 689.953125 498.394531 689.847656 505.859375 C 689.800781 511.808594 691.335938 517.726562 692.324219 523.683594 C 692.761719 526.042969 693.023438 528.679688 694.242188 530.628906 C 697.679688 536.207031 701.539062 541.539062 705.28125 547.050781 C 709.054688 547.648438 711.898438 550.511719 712.632812 554.230469 C 713.429688 554.609375 714.316406 555.046875 714.992188 555.613281 C 717.402344 557.933594 719.777344 560.105469 721.917969 562.644531 C 723.839844 564.914062 726.859375 565.679688 728.988281 567.824219 C 731.617188 570.417969 734.804688 572.328125 737.703125 574.703125 C 740.964844 577.3125 744.109375 580.109375 747.40625 582.867188 C 748.945312 584.113281 750.695312 585.234375 752.234375 586.480469 C 755.363281 586.667969 758.101562 588.679688 759.15625 591.695312 L 777.898438 602.789062 L 783.503906 609.238281 L 791.316406 611.644531 Z M 999.671875 396.460938 L 999.390625 395.890625 L 1005.777344 396.867188 C 1004.144531 398.808594 1002.898438 400.347656 1002.160156 401.300781 L 990.625 401.058594 L 990.25 400.425781 C 993.441406 399.09375 996.480469 397.792969 999.671875 396.460938 Z M 901.015625 463.296875 L 900.671875 464.242188 L 892.210938 462.851562 L 892.246094 461.574219 L 899.582031 461.074219 Z M 927.835938 465.015625 C 927.738281 467.808594 922.632812 469.085938 918.796875 466.761719 Z M 1048.546875 757.316406 C 1051.5625 758.078125 1055.019531 757.957031 1057.742188 759.179688 C 1061.84375 761.289062 1066.792969 761.472656 1071.101562 759.8125 C 1066.242188 757.871094 1060.507812 759.523438 1056.074219 755.902344 C 1055.304688 755.28125 1053.792969 755.613281 1052.667969 755.542969 C 1050.179688 755.375 1047.78125 755.265625 1045.289062 755.101562 C 1046.335938 755.902344 1047.296875 757.035156 1048.546875 757.316406 Z M 760.074219 384.054688 C 756.773438 385.96875 753.628906 388.238281 750.324219 390.152344 C 748.820312 390.878906 747.285156 391.453125 745.621094 391.816406 C 744.191406 393.238281 742.671875 394.601562 741.214844 396.265625 C 740.503906 397.371094 739.832031 398.628906 739.308594 399.851562 C 741.070312 396.691406 747.261719 398.582031 746.789062 394.253906 C 752.21875 390.84375 757.078125 387.722656 761.785156 384.632812 C 761.265625 384.429688 760.433594 383.898438 760.074219 384.054688 Z M 1333.992188 387.316406 C 1333.320312 385.324219 1333.214844 383.050781 1332.003906 381.496094 C 1330.792969 379.941406 1328.722656 379.523438 1327.097656 378.613281 C 1325.976562 380.363281 1325.855469 381.972656 1327.882812 383.269531 C 1328.464844 383.773438 1328.875 384.554688 1328.890625 385.34375 C 1328.546875 388.113281 1330.195312 388.78125 1332.359375 389.257812 Z M 1323.605469 371.699219 C 1322.90625 369.949219 1322.023438 368.085938 1321.171875 366.371094 L 1317.039062 362.6875 C 1315.695312 360.527344 1316.621094 356.445312 1312.234375 357.007812 C 1312.496094 358.21875 1313.003906 359.453125 1313.574219 360.59375 C 1317.339844 365.867188 1321.199219 371.195312 1325.023438 376.375 C 1324.601562 374.804688 1324.179688 373.234375 1323.605469 371.699219 Z M 1131.53125 762.800781 C 1133.941406 761.875 1136.410156 760.859375 1138.820312 759.933594 C 1137.78125 759.53125 1136.644531 758.671875 1135.738281 758.871094 C 1130.691406 760.054688 1125.804688 761.601562 1120.792969 762.9375 C 1124.382812 765.238281 1127.945312 764.140625 1131.53125 762.800781 Z M 981.730469 735.304688 C 983.816406 736.507812 986.578125 736.457031 988.984375 736.960938 C 988.574219 736.179688 988.34375 735.121094 987.730469 734.859375 C 983.84375 733.019531 979.898438 731.269531 975.953125 729.523438 C 977.960938 731.457031 979.460938 733.980469 981.730469 735.304688 Z M 813.984375 362.34375 C 813.78125 366.109375 810.816406 364.859375 808.699219 365.320312 C 806.945312 365.628906 804.046875 364.679688 805.234375 368.296875 C 807.5 367.800781 809.859375 367.363281 812.125 366.867188 C 814.390625 366.371094 816.808594 365.839844 819.226562 365.3125 Z M 1330.042969 551.832031 C 1329.34375 550.085938 1329.519531 547.988281 1329.332031 546.050781 C 1326.730469 546.464844 1325.472656 549.035156 1326.859375 550.316406 C 1328.652344 551.980469 1327.660156 552.515625 1327.136719 553.738281 C 1326.933594 554.257812 1327.28125 555.132812 1327.355469 555.828125 C 1328.828125 554.949219 1331.191406 554.90625 1330.042969 551.832031 Z M 700.585938 441.035156 C 700.464844 442.648438 700.285156 444.347656 700.101562 446.050781 C 700.671875 445.769531 701.789062 445.445312 701.722656 445.140625 C 701.820312 440.527344 703.996094 436.726562 705.988281 432.804688 C 702.921875 434.347656 700.859375 437.574219 700.585938 441.035156 Z M 1011.960938 333.277344 C 1010.5 334.550781 1008.996094 335.273438 1008.261719 336.625 C 1007.433594 337.914062 1007.34375 339.675781 1006.886719 341.199219 L 1014.972656 333.648438 Z M 1192.414062 742.566406 C 1194.382812 740.710938 1196.167969 738.734375 1197.769531 736.644531 L 1195.953125 735.21875 C 1195.449219 735.804688 1194.976562 736.542969 1194.46875 737.128906 C 1193.878906 738.050781 1193.289062 738.96875 1192.515625 739.773438 C 1191.441406 740.640625 1190.363281 741.511719 1189.101562 742.261719 C 1190.320312 742.390625 1191.878906 743 1192.414062 742.566406 Z M 1259.15625 311.320312 C 1257.53125 310.410156 1256.777344 307.328125 1253.980469 308.65625 L 1255.195312 312.03125 L 1263.730469 315.941406 C 1262.277344 314.359375 1260.964844 312.347656 1259.15625 311.320312 Z M 707.191406 550.355469 C 708.914062 551.71875 710.699219 552.992188 712.691406 554.136719 C 712.046875 550.476562 709.113281 547.558594 705.339844 546.960938 C 705.964844 548.011719 706.296875 549.519531 707.191406 550.355469 Z M 1226.511719 296.386719 L 1235.917969 301.371094 C 1235.140625 297.109375 1231.128906 295.058594 1226.511719 296.386719 Z M 1329.511719 559.15625 C 1328.917969 558.257812 1328.265625 557.449219 1327.496094 556.824219 C 1326.996094 561.050781 1326.496094 565.277344 1325.996094 569.503906 C 1328.03125 567.953125 1330.425781 561.171875 1329.511719 559.15625 Z M 999.632812 344.214844 L 997.308594 343.378906 L 995.363281 346.417969 C 994.773438 347.339844 993.820312 348.417969 993.082031 349.371094 C 994.53125 349.132812 996.011719 348.652344 997.488281 348.167969 C 998.597656 347.449219 999.675781 346.582031 1000.566406 345.59375 Z M 822.945312 364.574219 C 821.886719 364.808594 820.769531 365.128906 819.78125 365.664062 C 819.644531 366.488281 819.65625 367.273438 819.570312 367.609375 C 822.71875 367.15625 824.867188 366.84375 826.984375 366.382812 C 827.738281 366.214844 828.210938 365.480469 828.808594 364.953125 C 826.921875 364.652344 824.917969 364.539062 822.945312 364.574219 Z M 1318.691406 360.105469 L 1317.039062 362.6875 L 1321.171875 366.371094 C 1323.050781 363.03125 1320.121094 361.929688 1318.691406 360.105469 Z M 1089.535156 764.085938 C 1092.726562 766 1096.675781 766.324219 1100.042969 764.714844 C 1099.179688 764.03125 1098.3125 762.957031 1097.433594 762.910156 C 1094.914062 762.988281 1092.339844 763.15625 1089.890625 763.535156 Z M 1332.09375 534.441406 L 1327.5 530.460938 C 1327.152344 531.40625 1326.355469 532.453125 1326.578125 533.117188 C 1327.277344 534.863281 1328.070312 536.667969 1329.070312 538.351562 Z M 1332.183594 499.425781 C 1330.859375 501.695312 1329.445312 503.90625 1328.363281 506.203125 C 1327.460938 508.222656 1327.042969 510.292969 1329.074219 511.984375 Z M 954.601562 716.625 C 952.84375 715.109375 951.148438 713.503906 949.179688 712.113281 C 947.765625 711.078125 946.324219 710.285156 944.851562 709.339844 C 947.460938 712.570312 949.59375 716.535156 954.601562 716.625 Z M 793.058594 367.640625 C 790.910156 367.953125 788.792969 368.417969 786.804688 369.09375 C 785.988281 369.351562 785.617188 370.539062 785.050781 371.21875 C 788.355469 371.128906 791.828125 371.792969 794.226562 368.652344 C 793.707031 368.449219 793.300781 367.667969 793.058594 367.640625 Z M 770.324219 375.554688 L 770.648438 379.917969 C 772.714844 378.515625 776.144531 378.632812 776.382812 375.019531 Z M 1334.660156 390.730469 C 1334.214844 391.222656 1333.441406 392.027344 1333.472656 392.179688 C 1335.132812 395.0625 1336.796875 397.941406 1338.605469 400.792969 Z M 1112.085938 277.128906 C 1114.183594 277.304688 1116.246094 277.324219 1118.371094 277.257812 C 1119.730469 276.957031 1121.058594 276.507812 1122.292969 276 C 1118.46875 272.644531 1115.453125 276.945312 1112.085938 277.128906 Z M 1319.839844 611.15625 L 1318.003906 608.550781 C 1317.6875 609.648438 1317.53125 611.105469 1316.875 611.726562 C 1314.875 613.429688 1314.398438 615.59375 1314.105469 617.875 Z M 1308.621094 350.28125 C 1307.878906 349.414062 1307.132812 348.546875 1306.332031 347.773438 C 1307.472656 350.453125 1308.613281 353.132812 1309.964844 355.6875 C 1310.121094 356.046875 1311.421875 355.839844 1312.152344 355.917969 C 1310.816406 354.152344 1309.746094 352.171875 1308.621094 350.28125 Z M 1151.621094 756.574219 C 1155.082031 755.023438 1158.417969 753.265625 1161.789062 751.65625 C 1157.765625 752.457031 1153.679688 752.957031 1150.207031 755.539062 C 1150.761719 755.894531 1151.414062 756.699219 1151.621094 756.574219 Z M 1143.03125 759.644531 L 1149.335938 755.890625 C 1146.574219 755.941406 1143.648438 755.234375 1142.164062 758.570312 C 1142.414062 758.988281 1142.722656 759.316406 1143.03125 759.644531 Z M 1014.878906 333.589844 C 1016.8125 333.007812 1018.835938 332.484375 1020.671875 331.84375 C 1020.632812 331.300781 1020.535156 330.847656 1020.34375 330.332031 C 1016.792969 328.578125 1015.710938 330.875 1014.878906 333.589844 Z M 1082.214844 763.554688 L 1089.535156 764.085938 L 1089.890625 763.535156 C 1087.355469 761.003906 1084.8125 761.324219 1082.214844 763.554688 Z M 1302.796875 654.796875 C 1302.867188 653.671875 1301.996094 652.59375 1301.523438 651.511719 L 1297.203125 654.199219 C 1300.707031 655.015625 1300.707031 655.015625 1300.214844 656.390625 C 1301.117188 655.796875 1302.746094 655.28125 1302.796875 654.796875 Z M 1198.839844 287.882812 C 1201.132812 290.390625 1204.121094 289.578125 1206.972656 289.585938 C 1204.929688 285.679688 1201.777344 287.558594 1198.839844 287.882812 Z M 878.296875 362.101562 L 872.902344 362.414062 C 872.878906 362.65625 872.707031 363.328125 872.597656 363.90625 C 874.472656 365.234375 876.300781 365.628906 878.277344 364.164062 Z M 1249.148438 308.289062 C 1250.46875 310.691406 1252.316406 312.265625 1255.195312 312.03125 L 1253.980469 308.65625 Z M 759.242188 591.359375 C 758.1875 588.34375 755.449219 586.332031 752.320312 586.148438 Z M 1221.75 725.765625 L 1220.703125 723.144531 L 1215.03125 728.347656 C 1218.082031 729.261719 1219.992188 727.496094 1221.75 725.765625 Z M 1005.359375 342.167969 C 1002.59375 340.398438 1001.148438 342.457031 999.632812 344.214844 L 1000.414062 345.628906 C 1002.15625 344.535156 1003.710938 343.320312 1005.359375 342.167969 Z M 1331.664062 540.789062 L 1329.453125 539.375 C 1328.785156 541.023438 1325.265625 542.667969 1329.304688 544.476562 Z M 1337.628906 480.179688 C 1334.046875 481.914062 1336.15625 484.304688 1337.046875 486.5625 Z M 990.625 401.058594 L 1002.160156 401.300781 C 1002.898438 400.347656 1004.203125 398.714844 1005.777344 396.867188 L 999.390625 395.890625 L 999.671875 396.460938 C 996.632812 397.761719 993.441406 399.09375 990.34375 400.488281 Z M 892.097656 461.609375 L 892.058594 462.882812 L 900.519531 464.273438 L 900.867188 463.328125 L 899.371094 461.203125 Z M 927.746094 464.957031 L 918.707031 466.703125 C 922.539062 469.027344 927.644531 467.75 927.746094 464.957031 Z M 927.746094 464.957031 " fill-opacity="1" fill-rule="nonzero"/></g></g></g><g clip-path="url(#id5)"><g clip-path="url(#id6)"><g clip-path="url(#id7)"><path fill="#d6c3ff" d="M -93.386719 613.328125 C -94.289062 611.472656 -95.117188 609.640625 -95.917969 607.738281 C -98.839844 601.160156 -101.324219 594.320312 -104.578125 587.953125 C -107.527344 582.121094 -109.628906 576.273438 -110.15625 569.835938 C -110.300781 567.761719 -111.675781 565.808594 -112.421875 563.757812 C -114.714844 557.753906 -117.109375 551.792969 -119.050781 545.75 C -119.742188 543.550781 -119.339844 540.921875 -119.273438 538.503906 C -119.226562 537.929688 -118.285156 537.441406 -117.582031 536.695312 C -119.832031 534.160156 -121.390625 531.128906 -120.117188 527.308594 L -122.277344 518.488281 C -122.527344 516.457031 -122.597656 514.40625 -123.019531 512.394531 C -124.257812 506.277344 -125.851562 500.199219 -126.988281 494.039062 C -127.898438 489.0625 -128.203125 484.054688 -128.835938 479.011719 C -128.609375 475.726562 -128.0625 472.476562 -128.1875 469.226562 C -128.339844 466.726562 -129.445312 464.285156 -130.171875 461.734375 C -129.699219 459.808594 -129.328125 457.921875 -128.855469 455.996094 C -127.703125 452.71875 -127.15625 449.46875 -129.183594 446.34375 C -128.757812 445.664062 -128.40625 444.953125 -128.007812 444.34375 C -126.898438 442.738281 -127.320312 442.074219 -129.253906 442.273438 C -129.582031 440.464844 -129.914062 438.652344 -130.246094 436.84375 L -131.042969 432.242188 C -131.207031 429.316406 -131.292969 426.417969 -131.484375 423.5625 C -131.519531 423.210938 -131.707031 422.804688 -131.59375 422.511719 C -129.425781 417.425781 -131.285156 411.835938 -130.011719 406.667969 C -129.503906 405.765625 -129.039062 404.757812 -128.800781 403.667969 C -128.324219 400.390625 -127.949219 397.160156 -127.578125 393.929688 C -127.824219 392.574219 -128.589844 391.019531 -128.21875 389.8125 C -125.34375 381.285156 -122.691406 372.675781 -119.179688 364.472656 C -117.261719 360.050781 -113.453125 356.429688 -110.765625 352.214844 C -107.925781 347.808594 -105.351562 343.214844 -102.65625 338.75 C -102 338.574219 -100.929688 338.640625 -100.6875 338.226562 C -99.800781 336.539062 -99.058594 334.792969 -98.417969 333.097656 C -96.085938 330.265625 -93.578125 327.417969 -91.292969 324.484375 C -89.796875 322.519531 -88.996094 319.28125 -87.09375 318.480469 C -83.96875 317.128906 -81.386719 313.632812 -77.09375 315 C -76.265625 311.683594 -73.832031 310.15625 -70.441406 309.664062 L -61.304688 309.144531 C -59.316406 308.125 -58.207031 307.191406 -56.894531 306.84375 C -52.503906 305.714844 -48.097656 304.761719 -43.6875 303.8125 C -41.453125 303.472656 -39.171875 303.238281 -36.90625 302.824219 C -32.859375 302.160156 -28.832031 301.316406 -24.765625 300.824219 C -23.8125 300.761719 -22.734375 301.925781 -22.242188 302.195312 C -20.320312 301.570312 -18.574219 300.964844 -16.835938 300.605469 C -14.691406 300.066406 -12.558594 299.773438 -10.359375 299.761719 C -7.070312 299.988281 -3.808594 300.289062 -0.558594 300.839844 C 8.984375 302.15625 18.582031 303.328125 28.058594 305.042969 C 31.132812 305.613281 33.921875 307.84375 36.921875 309.058594 C 45.121094 312.144531 53.378906 315.085938 61.605469 318.101562 L 70.839844 320.90625 C 71.542969 321.507812 72.160156 322.332031 72.945312 322.710938 C 75.457031 323.65625 78.210938 324.1875 80.667969 325.28125 C 84.398438 327.023438 88.015625 329.0625 91.664062 331.027344 C 93.378906 331.839844 95.226562 332.539062 96.816406 333.472656 C 104.171875 337.675781 111.421875 342.175781 118.917969 346.011719 C 123.644531 348.46875 128.835938 349.917969 133.757812 351.855469 C 136.90625 353.125 139.945312 354.691406 143.167969 355.992188 C 144.082031 356.25 145.050781 356.363281 146.003906 356.300781 L 147.394531 359.773438 L 153.390625 359.757812 C 158.035156 361.757812 162.722656 363.863281 167.367188 365.867188 C 170.5625 367.238281 173.769531 368.359375 177.019531 369.585938 C 183.003906 371.839844 188.699219 374.40625 193.609375 378.617188 C 194.605469 379.328125 195.660156 379.894531 196.710938 380.460938 C 197.929688 381.253906 199.019531 382.171875 199.941406 382.855469 C 209.03125 385.605469 216.007812 391.941406 224.167969 396.027344 C 224.609375 398.21875 228.964844 402.554688 230.886719 402.605469 C 231.136719 402.613281 231.332031 402.097656 231.589844 401.859375 C 235.179688 404.644531 238.796875 407.355469 242.230469 410.335938 C 244.816406 412.65625 247.011719 415.339844 249.539062 417.808594 C 251.515625 419.730469 253.675781 421.386719 255.777344 423.191406 C 257.253906 424.421875 259.09375 425.367188 260.339844 426.765625 C 268.863281 436.382812 276.203125 446.902344 282.417969 458.179688 C 284.242188 461.394531 284.71875 465.28125 286.082031 468.832031 C 287.445312 472.378906 289.128906 475.964844 290.742188 479.523438 C 290.777344 482.570312 290.808594 485.617188 290.871094 488.589844 L 290.222656 488.515625 L 292.839844 495.230469 C 293.484375 503.144531 294.058594 511.03125 294.777344 518.972656 C 295.089844 521.957031 295.851562 524.855469 296.0625 527.886719 C 296.195312 530.214844 295.65625 532.539062 295.441406 534.902344 L 292.34375 551.859375 C 292.234375 552.828125 292.019531 553.84375 291.90625 554.8125 L 286.308594 569.226562 C 286.078125 569.390625 285.746094 569.601562 285.71875 569.675781 C 287.761719 575 284.410156 579.636719 283.351562 584.464844 C 282.164062 590.085938 279.414062 595.371094 277.53125 600.816406 C 276.410156 604.019531 275.582031 607.332031 274.683594 610.617188 C 274.65625 610.691406 274.671875 610.867188 274.617188 611.015625 L 269.253906 623.914062 C 268.371094 626.027344 267.34375 628.082031 266.933594 630.289062 C 266.3125 633.511719 265.671875 634.535156 262.742188 635.371094 C 261.316406 638.035156 264.179688 640.96875 260.710938 643.453125 C 257.632812 645.582031 257.027344 649.652344 255.109375 652.722656 C 249.460938 661.890625 241.304688 668.765625 232.769531 675.074219 C 228.351562 678.300781 224.050781 681.652344 219.582031 684.777344 C 217.964844 685.9375 215.96875 686.535156 214.109375 687.433594 C 207.871094 690.5625 201.824219 693.847656 195.445312 696.671875 C 192.324219 698.023438 188.765625 698.285156 185.382812 699.203125 C 184.449219 699.441406 183.753906 700.613281 182.878906 700.703125 C 178.5625 701.1875 174.957031 703.367188 171.167969 705.144531 C 167.78125 706.734375 164.34375 708.472656 160.675781 709.03125 C 156.027344 709.726562 152.4375 712.757812 147.984375 713.605469 C 143.53125 714.457031 138.953125 716.527344 134.351562 717.324219 C 128.21875 718.382812 121.90625 718.789062 115.6875 719.394531 C 112.175781 719.757812 108.519531 719.390625 105.070312 720.03125 C 101.273438 720.710938 97.800781 721.421875 96.003906 716.785156 C 91.859375 721.96875 86.296875 721.054688 81.640625 720.648438 C 75.25 719.925781 69.082031 717.9375 62.472656 718.230469 C 59.71875 718.375 56.820312 717.113281 54.003906 716.304688 C 48.445312 714.71875 42.941406 712.980469 37.351562 711.464844 C 36.042969 711.140625 34.414062 711.878906 33.128906 711.476562 C 23.921875 708.597656 14.667969 705.621094 5.472656 702.492188 C -1.484375 700.125 -8.703125 698.246094 -15.039062 694.679688 C -22.203125 690.632812 -30.003906 687.609375 -36.113281 681.433594 C -39.527344 677.953125 -43.433594 674.882812 -46.996094 671.347656 C -53.371094 664.984375 -60.496094 659.265625 -67.261719 653.261719 C -68.292969 652.199219 -69.125 651.042969 -69.898438 649.738281 C -73.773438 643.898438 -77.671875 638.128906 -81.519531 632.214844 C -84.089844 628.292969 -86.359375 624.234375 -88.828125 620.269531 C -89.28125 619.679688 -89.761719 619.160156 -90.371094 618.761719 C -89.507812 616.472656 -91.09375 613.515625 -93.386719 613.328125 Z M -2.671875 677.085938 L -2.136719 676.109375 L -14.15625 669.050781 L -14.824219 670.148438 C -11.722656 674.015625 -7.902344 676.632812 -2.671875 677.085938 Z M 41.386719 338.640625 C 35.699219 335.824219 32.011719 336.203125 32.125 339.703125 C 35.085938 338.792969 38.550781 344.148438 41.386719 338.640625 Z M -52.632812 303.8125 C -58.714844 305.402344 -64.601562 307.820312 -70.527344 309.886719 L -61.386719 309.367188 C -59.402344 308.34375 -58.289062 307.414062 -56.980469 307.066406 C -52.589844 305.9375 -48.179688 304.984375 -43.847656 304.003906 C -46.839844 303.886719 -49.980469 303.042969 -52.632812 303.8125 Z M 91.066406 327.683594 L 90.632812 328.613281 C 85.445312 323.792969 78.800781 323.738281 72.679688 321.851562 L 70.480469 321.191406 C 71.183594 321.792969 71.800781 322.617188 72.585938 322.996094 C 75.097656 323.941406 77.851562 324.472656 80.304688 325.566406 C 84.035156 327.308594 87.65625 329.347656 91.300781 331.3125 Z M -131.785156 398.160156 C -131.59375 401.015625 -130.730469 403.867188 -130.113281 406.714844 C -129.605469 405.808594 -129.140625 404.804688 -128.902344 403.714844 C -128.425781 400.4375 -128.050781 397.207031 -127.679688 393.976562 C -131.152344 393.34375 -131.921875 395.832031 -131.785156 398.160156 Z M 292.792969 486.617188 C 291.863281 484.832031 291.921875 481.988281 290.429688 479.910156 C 290.460938 482.957031 290.496094 486.003906 290.554688 488.976562 L 289.910156 488.902344 L 292.523438 495.617188 C 292.859375 492.710938 294.683594 490.109375 292.792969 486.617188 Z M 296.199219 536.703125 C 296.261719 536.308594 295.488281 535.679688 295.007812 535.160156 L 291.910156 552.117188 C 293.332031 547.003906 294.851562 541.84375 296.199219 536.703125 Z M 287.972656 568.167969 C 288.953125 566.683594 289.503906 564.78125 290.722656 563.554688 C 293.351562 560.835938 293.355469 558.140625 291.519531 555.171875 L 285.949219 569.511719 C 286.613281 569.085938 287.574219 568.773438 287.972656 568.167969 Z M -130.234375 472.417969 C -129.996094 474.699219 -129.480469 476.917969 -128.964844 479.132812 C -128.738281 475.847656 -128.191406 472.597656 -128.316406 469.347656 C -128.46875 466.84375 -129.574219 464.40625 -130.300781 461.855469 C -130.289062 465.402344 -130.421875 468.890625 -130.234375 472.417969 Z M -131.136719 442.574219 C -130.824219 442.863281 -130.011719 442.492188 -129.410156 442.46875 C -129.742188 440.65625 -130.070312 438.847656 -130.402344 437.035156 L -131.199219 432.4375 C -133.246094 434.953125 -133.308594 440.492188 -131.136719 442.574219 Z M 223.855469 396.414062 C 224.296875 398.605469 228.652344 402.941406 230.574219 402.992188 C 230.820312 403.003906 231.015625 402.484375 231.277344 402.246094 C 229.671875 399.113281 228.085938 396.15625 223.855469 396.414062 Z M 145.714844 356.613281 L 147.105469 360.085938 L 153.101562 360.070312 C 152.367188 357.097656 148.414062 355.269531 145.714844 356.613281 Z M 71.335938 318.480469 C 68 318.152344 64.644531 318.320312 61.320312 318.414062 L 70.554688 321.21875 L 72.753906 321.878906 C 72.199219 320.660156 71.832031 318.5 71.335938 318.480469 Z M -90.425781 618.910156 C -89.433594 616.503906 -91.019531 613.546875 -93.3125 613.355469 C -94.597656 616.328125 -93.1875 617.953125 -90.425781 618.910156 Z M -123.464844 520.738281 C -122.550781 523.023438 -121.234375 525.121094 -120.117188 527.308594 L -122.308594 518.5625 C -122.761719 519.320312 -123.695312 520.230469 -123.464844 520.738281 Z M -128.910156 456.140625 C -127.761719 452.867188 -127.210938 449.617188 -129.238281 446.492188 C -131.164062 449.8125 -129.3125 452.957031 -128.910156 456.140625 Z M -102.8125 338.941406 C -102.15625 338.769531 -101.085938 338.835938 -100.847656 338.417969 C -99.957031 336.730469 -99.214844 334.988281 -98.574219 333.289062 C -101.597656 333.921875 -102.609375 336.15625 -102.8125 338.941406 Z M -2.136719 676.109375 L -14.15625 669.050781 L -14.824219 670.148438 C -11.722656 674.015625 -7.902344 676.632812 -2.671875 677.085938 Z M 32.125 339.703125 C 35.085938 338.792969 38.523438 344.21875 41.386719 338.640625 C 35.726562 335.75 32.011719 336.203125 32.125 339.703125 Z M 32.125 339.703125 " fill-opacity="1" fill-rule="nonzero"/></g></g></g></svg>